<svg width="214" height="76" viewBox="0 0 214 76" fill="none" xmlns="http://www.w3.org/2000/svg">
<path d="M144.466 4.11011H96.3104V54.321H109.23V14.3872H117.452V54.321H130.372V14.3872H140.061V54.321H152.688C152.785 42.5757 152.922 17.6757 152.688 12.038C152.453 6.40029 147.109 4.40369 144.466 4.11011Z" fill="white"/>
<path d="M203.192 4.11011H160.909V14.3872H213.176C213.176 14.3872 215.231 4.11008 203.192 4.11011Z" fill="white"/>
<path d="M203.192 23.4897H160.909V34.354H203.192V44.3375H160.909V54.321H213.176V34.354C213.176 24.6642 207.303 23.4897 203.192 23.4897Z" fill="white"/>
<path d="M77.518 4.11011H35.2351V14.3872H87.5014C87.5014 14.3872 89.5569 4.11008 77.518 4.11011Z" fill="white"/>
<path d="M77.518 23.4897H35.2351V34.354H77.518V44.3375H35.2351V54.321H87.5014V34.354C87.5014 24.6642 81.6288 23.4897 77.518 23.4897Z" fill="white"/>
<path d="M14.6816 0H25.8395C26.7204 0.293631 28.541 1.40943 28.7759 3.52358C29.0108 5.63772 28.8737 11.6475 28.7759 14.3881H14.6816V23.4905H25.8395C26.8183 23.6863 28.7759 24.8412 28.7759 27.895V38.1721H14.6816V23.4905H0V17.3243C0.391508 16.3455 1.99669 14.3881 5.28536 14.3881H14.6816V0Z" fill="#AB7F57"/>
<path d="M83.9255 62.2767H87.0286L89.0307 66.441H89.1107L91.1128 62.2767H94.2159L90.4521 69.3039V72.5271H87.6893V69.3039L83.9255 62.2767Z" fill="#AB7F57"/>
<path d="M97.0526 72.6473C96.5621 72.6473 96.1283 72.5672 95.7513 72.407C95.3776 72.2435 95.0839 71.9966 94.8704 71.6663C94.6568 71.3359 94.5501 70.9155 94.5501 70.405C94.5501 69.9846 94.6218 69.6259 94.7653 69.3289C94.9088 69.0286 95.109 68.7833 95.3659 68.5932C95.6228 68.403 95.9214 68.2578 96.2618 68.1577C96.6055 68.0576 96.9758 67.9925 97.3729 67.9625C97.8034 67.9291 98.1487 67.8891 98.409 67.8424C98.6726 67.7923 98.8628 67.7239 98.9795 67.6372C99.0963 67.5471 99.1547 67.4286 99.1547 67.2818V67.2618C99.1547 67.0616 99.078 66.9081 98.9245 66.8013C98.771 66.6946 98.5741 66.6412 98.3339 66.6412C98.0703 66.6412 97.8551 66.6996 97.6882 66.8163C97.5247 66.9298 97.4263 67.105 97.3929 67.3419H94.8504C94.8837 66.8747 95.0322 66.4443 95.2958 66.0506C95.5627 65.6535 95.9515 65.3365 96.462 65.0996C96.9725 64.8594 97.6098 64.7392 98.3739 64.7392C98.9245 64.7392 99.4183 64.8043 99.8554 64.9344C100.293 65.0612 100.665 65.2397 100.972 65.47C101.279 65.6969 101.512 65.9638 101.672 66.2708C101.836 66.5744 101.918 66.9048 101.918 67.2618V72.5271H99.3349V71.446H99.2748C99.1214 71.733 98.9345 71.9649 98.7143 72.1418C98.4974 72.3186 98.2488 72.4471 97.9685 72.5271C97.6916 72.6072 97.3863 72.6473 97.0526 72.6473ZM97.9535 70.9055C98.1637 70.9055 98.3606 70.8621 98.5441 70.7754C98.731 70.6886 98.8828 70.5635 98.9996 70.4C99.1164 70.2365 99.1747 70.038 99.1747 69.8044V69.1637C99.1013 69.1938 99.0229 69.2221 98.9395 69.2488C98.8594 69.2755 98.7727 69.3005 98.6792 69.3239C98.5892 69.3472 98.4924 69.3689 98.3889 69.389C98.2888 69.409 98.1837 69.4273 98.0736 69.444C97.8601 69.4774 97.6849 69.5324 97.5481 69.6092C97.4146 69.6826 97.3145 69.7743 97.2478 69.8845C97.1844 69.9912 97.1527 70.1114 97.1527 70.2448C97.1527 70.4584 97.2278 70.6219 97.3779 70.7353C97.5281 70.8488 97.7199 70.9055 97.9535 70.9055Z" fill="#AB7F57"/>
<path d="M104.788 75.4101V64.8393H107.531V66.1807H107.591C107.691 65.9204 107.838 65.6819 108.031 65.465C108.225 65.2448 108.465 65.0696 108.752 64.9394C109.039 64.806 109.373 64.7392 109.753 64.7392C110.26 64.7392 110.742 64.8744 111.199 65.1447C111.66 65.4149 112.034 65.8404 112.321 66.4209C112.611 67.0015 112.756 67.7556 112.756 68.6832C112.756 69.5708 112.618 70.3066 112.341 70.8905C112.067 71.4744 111.7 71.9099 111.24 72.1968C110.782 72.4838 110.28 72.6272 109.733 72.6272C109.373 72.6272 109.051 72.5689 108.767 72.4521C108.487 72.3319 108.247 72.1701 108.046 71.9666C107.849 71.7597 107.698 71.5261 107.591 71.2659H107.551V75.4101H104.788ZM107.491 68.6832C107.491 69.057 107.539 69.3806 107.636 69.6542C107.736 69.9245 107.876 70.1347 108.056 70.2849C108.24 70.4317 108.458 70.5051 108.712 70.5051C108.966 70.5051 109.181 70.4334 109.358 70.2899C109.538 70.1431 109.675 69.9345 109.768 69.6642C109.865 69.3906 109.913 69.0636 109.913 68.6832C109.913 68.3029 109.865 67.9775 109.768 67.7073C109.675 67.4336 109.538 67.2251 109.358 67.0816C109.181 66.9348 108.966 66.8614 108.712 66.8614C108.458 66.8614 108.24 66.9348 108.056 67.0816C107.876 67.2251 107.736 67.4336 107.636 67.7073C107.539 67.9775 107.491 68.3029 107.491 68.6832Z" fill="#AB7F57"/>
<path d="M115.464 72.5271V64.8393H118.227V72.5271H115.464Z" fill="#AB7F57"/>
<path d="M132.16 65.6602C132.116 65.4833 132.048 65.3282 131.954 65.1947C131.861 65.0579 131.744 64.9428 131.604 64.8494C131.467 64.7526 131.307 64.6808 131.124 64.6341C130.943 64.5841 130.745 64.5591 130.528 64.5591C130.061 64.5591 129.662 64.6708 129.332 64.8944C129.005 65.118 128.755 65.4399 128.581 65.8604C128.411 66.2808 128.326 66.788 128.326 67.3819C128.326 67.9825 128.408 68.4964 128.571 68.9235C128.735 69.3506 128.978 69.6776 129.302 69.9045C129.625 70.1314 130.027 70.2448 130.508 70.2448C130.932 70.2448 131.284 70.1831 131.564 70.0596C131.848 69.9362 132.06 69.761 132.2 69.5341C132.34 69.3072 132.41 69.0403 132.41 68.7333L132.89 68.7833H130.548V66.8013H135.093V68.2228C135.093 69.1571 134.894 69.9562 134.497 70.6202C134.103 71.2809 133.559 71.7881 132.865 72.1418C132.175 72.4921 131.382 72.6673 130.488 72.6673C129.49 72.6673 128.614 72.4554 127.86 72.0316C127.106 71.6079 126.517 71.0039 126.094 70.2198C125.673 69.4357 125.463 68.5031 125.463 67.422C125.463 66.5744 125.591 65.8237 125.848 65.1697C126.109 64.5157 126.469 63.9635 126.929 63.513C127.39 63.0592 127.922 62.7172 128.526 62.487C129.13 62.2534 129.777 62.1366 130.468 62.1366C131.075 62.1366 131.639 62.2234 132.16 62.3969C132.684 62.567 133.146 62.8106 133.546 63.1276C133.95 63.4413 134.275 63.8133 134.522 64.2437C134.769 64.6742 134.919 65.1463 134.973 65.6602H132.16Z" fill="#AB7F57"/>
<path d="M137.981 72.5271V64.8393H140.663V66.3008H140.743C140.884 65.7603 141.105 65.3649 141.409 65.1146C141.716 64.8644 142.075 64.7392 142.485 64.7392C142.605 64.7392 142.724 64.7492 142.841 64.7693C142.961 64.786 143.076 64.811 143.186 64.8443V67.2017C143.049 67.155 142.881 67.12 142.68 67.0966C142.48 67.0733 142.308 67.0616 142.165 67.0616C141.895 67.0616 141.651 67.1233 141.434 67.2468C141.221 67.3669 141.052 67.5371 140.929 67.7573C140.805 67.9742 140.743 68.2294 140.743 68.5231V72.5271H137.981Z" fill="#AB7F57"/>
<path d="M150.627 69.1637V64.8393H153.39V72.5271H150.767V71.0657H150.687C150.52 71.5562 150.229 71.9399 149.811 72.2168C149.394 72.4904 148.899 72.6272 148.325 72.6272C147.788 72.6272 147.317 72.5038 146.913 72.2569C146.513 72.01 146.201 71.6696 145.978 71.2358C145.757 70.8021 145.646 70.3049 145.642 69.7443V64.8393H148.405V69.1637C148.408 69.5441 148.505 69.8428 148.695 70.0596C148.889 70.2765 149.159 70.385 149.506 70.385C149.736 70.385 149.935 70.3366 150.102 70.2398C150.272 70.1397 150.402 69.9996 150.492 69.8194C150.586 69.6359 150.631 69.4173 150.627 69.1637Z" fill="#AB7F57"/>
<path d="M156.346 75.4101V64.8393H159.088V66.1807H159.148C159.249 65.9204 159.395 65.6819 159.589 65.465C159.782 65.2448 160.023 65.0696 160.31 64.9394C160.597 64.806 160.93 64.7392 161.311 64.7392C161.818 64.7392 162.3 64.8744 162.757 65.1447C163.218 65.4149 163.591 65.8404 163.878 66.4209C164.169 67.0015 164.314 67.7556 164.314 68.6832C164.314 69.5708 164.175 70.3066 163.898 70.8905C163.625 71.4744 163.258 71.9099 162.797 72.1968C162.34 72.4838 161.838 72.6272 161.291 72.6272C160.93 72.6272 160.608 72.5689 160.325 72.4521C160.044 72.3319 159.804 72.1701 159.604 71.9666C159.407 71.7597 159.255 71.5261 159.148 71.2659H159.108V75.4101H156.346ZM159.048 68.6832C159.048 69.057 159.097 69.3806 159.193 69.6542C159.294 69.9245 159.434 70.1347 159.614 70.2849C159.797 70.4317 160.016 70.5051 160.27 70.5051C160.523 70.5051 160.738 70.4334 160.915 70.2899C161.095 70.1431 161.232 69.9345 161.326 69.6642C161.422 69.3906 161.471 69.0636 161.471 68.6832C161.471 68.3029 161.422 67.9775 161.326 67.7073C161.232 67.4336 161.095 67.2251 160.915 67.0816C160.738 66.9348 160.523 66.8614 160.27 66.8614C160.016 66.8614 159.797 66.9348 159.614 67.0816C159.434 67.2251 159.294 67.4336 159.193 67.7073C159.097 67.9775 159.048 68.3029 159.048 68.6832Z" fill="#AB7F57"/>
<path d="M79.2806 67.2413H34.355V70.7649H79.2806V67.2413Z" fill="#AB7F57"/>
<path d="M213.764 67.2413H168.838V70.7649H213.764V67.2413Z" fill="#AB7F57"/>
</svg>
