<svg width="364" height="129" viewBox="0 0 364 129" fill="none" xmlns="http://www.w3.org/2000/svg">
    <path d="M246 7.00024H164V92.5H186V24.5002H200V92.5H222V24.5002H238.5V92.5H260C260.167 72.5 260.4 30.1 260 20.5C259.6 10.9 250.5 7.50016 246 7.00024Z" fill="#01305C"/>
    <path d="M346 7.00024H274V24.5002H363C363 24.5002 366.5 7.0002 346 7.00024Z" fill="#01305C"/>
    <path d="M346 40H274V58.5H346V75.5H274V92.5H363V58.5C363 42 353 40 346 40Z" fill="#01305C"/>
    <path d="M132 7.00024H60V24.5002H149C149 24.5002 152.5 7.0002 132 7.00024Z" fill="#01305C"/>
    <path d="M132 40H60V58.5H132V75.5H60V92.5H149V58.5C149 42 139 40 132 40Z" fill="#01305C"/>
    <path d="M25 0H44C45.5 0.5 48.6 2.4 49 6C49.4 9.6 49.1667 19.8335 49 24.5002H25V40H44C45.6667 40.3333 49 42.3 49 47.5V65H25V40H0V29.5C0.666667 27.8334 3.4 24.5002 9 24.5002H25V0Z" fill="#AB7F57"/>
    <path d="M142.909 106.046H148.193L151.602 113.136H151.739L155.148 106.046H160.432L154.023 118.011V123.5H149.318V118.011L142.909 106.046Z" fill="#AB7F57"/>
    <path d="M165.262 123.705C164.427 123.705 163.688 123.568 163.046 123.296C162.41 123.017 161.91 122.597 161.546 122.034C161.183 121.472 161.001 120.756 161.001 119.886C161.001 119.171 161.123 118.56 161.367 118.054C161.612 117.543 161.953 117.125 162.39 116.801C162.828 116.477 163.336 116.23 163.916 116.06C164.501 115.889 165.132 115.778 165.808 115.727C166.541 115.671 167.129 115.602 167.572 115.523C168.021 115.438 168.345 115.321 168.543 115.173C168.742 115.02 168.842 114.818 168.842 114.568V114.534C168.842 114.193 168.711 113.932 168.45 113.75C168.188 113.568 167.853 113.477 167.444 113.477C166.995 113.477 166.629 113.577 166.345 113.776C166.066 113.969 165.899 114.267 165.842 114.671H161.512C161.569 113.875 161.822 113.142 162.271 112.472C162.725 111.796 163.387 111.256 164.257 110.852C165.126 110.443 166.211 110.239 167.512 110.239C168.45 110.239 169.291 110.349 170.035 110.571C170.779 110.787 171.413 111.091 171.936 111.483C172.458 111.869 172.856 112.324 173.129 112.847C173.407 113.364 173.546 113.926 173.546 114.534V123.5H169.149V121.659H169.046C168.785 122.148 168.467 122.543 168.092 122.844C167.722 123.145 167.299 123.364 166.822 123.5C166.35 123.636 165.83 123.705 165.262 123.705ZM166.796 120.739C167.154 120.739 167.49 120.665 167.802 120.517C168.12 120.369 168.379 120.156 168.578 119.878C168.776 119.599 168.876 119.261 168.876 118.864V117.773C168.751 117.824 168.617 117.872 168.475 117.918C168.339 117.963 168.191 118.006 168.032 118.046C167.879 118.085 167.714 118.122 167.538 118.156C167.367 118.19 167.188 118.222 167.001 118.25C166.637 118.307 166.339 118.401 166.106 118.531C165.879 118.656 165.708 118.813 165.595 119C165.487 119.182 165.433 119.386 165.433 119.614C165.433 119.977 165.561 120.256 165.816 120.449C166.072 120.642 166.399 120.739 166.796 120.739Z" fill="#AB7F57"/>
    <path d="M178.434 128.409V110.409H183.105V112.693H183.207C183.377 112.25 183.627 111.844 183.957 111.474C184.286 111.099 184.696 110.801 185.184 110.58C185.673 110.352 186.241 110.239 186.889 110.239C187.752 110.239 188.573 110.469 189.352 110.929C190.136 111.389 190.772 112.114 191.261 113.102C191.755 114.091 192.002 115.375 192.002 116.955C192.002 118.466 191.767 119.719 191.295 120.713C190.829 121.707 190.204 122.449 189.42 122.938C188.642 123.426 187.786 123.671 186.855 123.671C186.241 123.671 185.693 123.571 185.21 123.372C184.733 123.168 184.323 122.892 183.983 122.546C183.647 122.193 183.389 121.796 183.207 121.352H183.139V128.409H178.434ZM183.036 116.955C183.036 117.591 183.119 118.142 183.284 118.608C183.454 119.068 183.693 119.426 184 119.682C184.312 119.932 184.684 120.057 185.116 120.057C185.548 120.057 185.914 119.935 186.215 119.69C186.522 119.44 186.755 119.085 186.914 118.625C187.079 118.159 187.161 117.602 187.161 116.955C187.161 116.307 187.079 115.753 186.914 115.293C186.755 114.827 186.522 114.472 186.215 114.227C185.914 113.977 185.548 113.852 185.116 113.852C184.684 113.852 184.312 113.977 184 114.227C183.693 114.472 183.454 114.827 183.284 115.293C183.119 115.753 183.036 116.307 183.036 116.955Z" fill="#AB7F57"/>
    <path d="M196.613 123.5V110.409H201.318V123.5H196.613Z" fill="#AB7F57"/>
    <path d="M225.043 111.807C224.969 111.506 224.853 111.242 224.694 111.014C224.535 110.781 224.336 110.585 224.097 110.426C223.864 110.261 223.591 110.139 223.279 110.06C222.972 109.974 222.634 109.932 222.265 109.932C221.469 109.932 220.79 110.122 220.228 110.503C219.671 110.884 219.245 111.432 218.949 112.148C218.66 112.864 218.515 113.727 218.515 114.739C218.515 115.761 218.654 116.636 218.932 117.364C219.211 118.091 219.626 118.648 220.177 119.034C220.728 119.421 221.412 119.614 222.231 119.614C222.952 119.614 223.552 119.509 224.029 119.298C224.512 119.088 224.873 118.79 225.111 118.403C225.35 118.017 225.469 117.563 225.469 117.04L226.287 117.125H222.299V113.75H230.037V116.171C230.037 117.761 229.699 119.122 229.023 120.253C228.353 121.378 227.427 122.242 226.245 122.844C225.069 123.44 223.719 123.739 222.197 123.739C220.498 123.739 219.006 123.378 217.722 122.656C216.438 121.935 215.435 120.906 214.714 119.571C213.998 118.236 213.64 116.648 213.64 114.807C213.64 113.364 213.858 112.085 214.296 110.972C214.739 109.858 215.353 108.918 216.137 108.151C216.921 107.378 217.827 106.796 218.856 106.403C219.884 106.006 220.986 105.807 222.162 105.807C223.197 105.807 224.157 105.955 225.043 106.25C225.935 106.54 226.722 106.955 227.404 107.494C228.091 108.028 228.645 108.662 229.066 109.395C229.486 110.128 229.742 110.932 229.833 111.807H225.043Z" fill="#AB7F57"/>
    <path d="M234.955 123.5V110.409H239.523V112.898H239.66C239.898 111.977 240.276 111.304 240.793 110.878C241.316 110.452 241.927 110.239 242.626 110.239C242.83 110.239 243.032 110.256 243.231 110.29C243.435 110.318 243.631 110.361 243.819 110.418V114.432C243.586 114.352 243.299 114.293 242.958 114.253C242.617 114.213 242.324 114.193 242.08 114.193C241.62 114.193 241.205 114.298 240.836 114.509C240.472 114.713 240.185 115.003 239.975 115.378C239.765 115.747 239.66 116.182 239.66 116.682V123.5H234.955Z" fill="#AB7F57"/>
    <path d="M256.49 117.773V110.409H261.195V123.5H256.729V121.011H256.592C256.308 121.847 255.811 122.5 255.101 122.972C254.391 123.438 253.547 123.671 252.57 123.671C251.655 123.671 250.854 123.46 250.166 123.04C249.484 122.619 248.953 122.04 248.572 121.301C248.197 120.563 248.007 119.716 248.001 118.761V110.409H252.706V117.773C252.712 118.421 252.876 118.929 253.2 119.298C253.53 119.668 253.99 119.852 254.581 119.852C254.973 119.852 255.311 119.77 255.595 119.605C255.885 119.435 256.107 119.196 256.26 118.889C256.419 118.577 256.496 118.205 256.49 117.773Z" fill="#AB7F57"/>
    <path d="M266.227 128.409V110.409H270.898V112.693H271C271.171 112.25 271.421 111.844 271.75 111.474C272.08 111.099 272.489 110.801 272.977 110.58C273.466 110.352 274.034 110.239 274.682 110.239C275.546 110.239 276.367 110.469 277.145 110.929C277.929 111.389 278.565 112.114 279.054 113.102C279.548 114.091 279.796 115.375 279.796 116.955C279.796 118.466 279.56 119.719 279.088 120.713C278.622 121.707 277.997 122.449 277.213 122.938C276.435 123.426 275.58 123.671 274.648 123.671C274.034 123.671 273.486 123.571 273.003 123.372C272.526 123.168 272.117 122.892 271.776 122.546C271.44 122.193 271.182 121.796 271 121.352H270.932V128.409H266.227ZM270.83 116.955C270.83 117.591 270.912 118.142 271.077 118.608C271.247 119.068 271.486 119.426 271.793 119.682C272.105 119.932 272.477 120.057 272.909 120.057C273.341 120.057 273.707 119.935 274.009 119.69C274.315 119.44 274.548 119.085 274.707 118.625C274.872 118.159 274.955 117.602 274.955 116.955C274.955 116.307 274.872 115.753 274.707 115.293C274.548 114.827 274.315 114.472 274.009 114.227C273.707 113.977 273.341 113.852 272.909 113.852C272.477 113.852 272.105 113.977 271.793 114.227C271.486 114.472 271.247 114.827 271.077 115.293C270.912 115.753 270.83 116.307 270.83 116.955Z" fill="#AB7F57"/>
    <path d="M135 114.5H58.5V120.5H135V114.5Z" fill="#AB7F57"/>
    <path d="M364 114.5H287.5V120.5H364V114.5Z" fill="#AB7F57"/>
</svg>